<svg id="tiktok" width="94" height="94" viewBox="0 0 94 94" fill="none" xmlns="http://www.w3.org/2000/svg">
<rect x="11" y="11" width="71" height="71" rx="6" fill="black"/>
<path d="M47.859 28.0312C49.9931 28 52.115 28.0185 54.2345 28C54.3629 30.36 55.2605 32.764 57.0877 34.4326C58.9112 36.1427 61.4904 36.9256 64 37.1904V43.3986C61.6482 43.3258 59.2854 42.8632 57.1513 41.9058C56.2218 41.508 55.3559 40.9958 54.5084 40.472C54.4974 44.977 54.528 49.4762 54.4778 53.9627C54.3506 56.118 53.5985 58.263 52.2728 60.0391C50.1399 62.9958 46.4379 64.9233 42.6357 64.9835C40.3034 65.1095 37.9736 64.5082 35.9863 63.4005C32.6928 61.5643 30.3752 58.2029 30.0377 54.5952C29.9952 53.8311 29.9886 53.0657 30.0181 52.301C30.3116 49.3675 31.8465 46.5611 34.2288 44.652C36.9292 42.4285 40.7119 41.3693 44.2537 41.996C44.2867 44.2797 44.1901 46.5611 44.1901 48.8448C42.5721 48.3499 40.6813 48.4887 39.2675 49.4172C38.2332 50.0615 37.4515 51.0093 37.0429 52.1149C36.7054 52.8965 36.802 53.7649 36.8216 54.5952C37.2093 57.1252 39.7824 59.2516 42.5293 59.0215C44.3503 59.003 46.0955 58.004 47.0445 56.5412C47.3515 56.029 47.6951 55.5052 47.7135 54.9027C47.8737 52.1449 47.8101 49.3987 47.8297 46.6409C47.8431 40.4257 47.8101 34.2279 47.8602 28.0324L47.859 28.0312Z" fill="white"/>
</svg>
