<svg id="facebook" width="94" height="94" viewBox="0 0 94 94" fill="none" xmlns="http://www.w3.org/2000/svg">
<rect x="11" y="12" width="71" height="71" rx="6" fill="#3579E9"/>
<path d="M29.5039 47.0035C29.5049 51.1708 30.9922 55.2011 33.6986 58.37C36.4049 61.5389 40.1529 63.6386 44.2687 64.2918V52.061H39.8289V47.0035H44.2739V43.1535C44.1758 42.2524 44.2772 41.3408 44.5711 40.4833C44.865 39.6258 45.344 38.8436 45.9743 38.1921C46.6045 37.5407 47.3705 37.036 48.2177 36.7139C49.065 36.3918 49.9728 36.2602 50.8767 36.3285C52.1892 36.3495 53.5017 36.4668 54.7967 36.6785V40.9818H52.5847C52.2087 40.9325 51.8265 40.9684 51.4663 41.0867C51.106 41.2051 50.777 41.4028 50.5035 41.6654C50.23 41.928 50.019 42.2487 49.8861 42.6038C49.7532 42.9589 49.7018 43.3394 49.7357 43.717V47.0035H54.5849L53.8097 52.0628H49.7357V64.2918C53.039 63.7697 56.1236 62.312 58.6242 60.0913C61.1248 57.8707 62.9367 54.9799 63.8455 51.7614C64.7542 48.5429 64.7217 45.1314 63.7517 41.9308C62.7818 38.7302 60.9151 35.8746 58.3726 33.702C55.83 31.5294 52.7182 30.1308 49.4055 29.6719C46.0929 29.2129 42.718 29.7128 39.6806 31.1123C36.6432 32.5118 34.0704 34.7524 32.2668 37.5687C30.4632 40.385 29.5044 43.6592 29.5039 47.0035V47.0035Z" fill="white"/>
</svg>
