<svg id="twitter" width="94" height="94" viewBox="0 0 94 94" fill="none" xmlns="http://www.w3.org/2000/svg">
<rect x="11" y="11" width="71" height="71" rx="6" fill="#6BAAE7"/>
<path fill-rule="evenodd" clip-rule="evenodd" d="M63.9798 31.5726C62.5119 32.4692 60.8863 33.1208 59.1564 33.4727C57.7723 31.9488 55.801 31 53.6173 31C49.4242 31 46.0257 34.506 46.0257 38.8266C46.0257 39.4393 46.0936 40.038 46.2222 40.6094C39.9146 40.2836 34.3209 37.166 30.5773 32.4303C29.924 33.5845 29.551 34.9297 29.551 36.3654C29.551 39.0819 30.8927 41.478 32.9271 42.8797C31.6824 42.8371 30.513 42.484 29.4891 41.8974V41.9953C29.4891 45.787 32.1058 48.9502 35.5765 49.6723C34.9408 49.8486 34.2706 49.9459 33.5773 49.9459C33.0872 49.9459 32.6129 49.8954 32.1476 49.8042C33.1145 52.9134 35.9168 55.177 39.2371 55.242C36.6404 57.3397 33.3662 58.5912 29.8112 58.5912C29.198 58.5912 28.5938 58.5535 28 58.4842C31.3597 60.7029 35.3478 62 39.6356 62C53.5973 62 61.2315 50.0723 61.2315 39.728L61.2066 38.7147C62.6945 37.6145 63.984 36.236 65 34.6677C63.6389 35.2895 62.1777 35.712 60.6419 35.901C62.2092 34.9315 63.4108 33.3961 63.9798 31.5726Z" fill="white"/>
</svg>
