<svg id="instagram" width="94" height="94" viewBox="0 0 94 94" fill="none" xmlns="http://www.w3.org/2000/svg">
<rect x="11" y="11" width="71" height="71" rx="6" fill="url(#paint0_linear_513_1760)"/>
<path d="M46.9952 39.9974C43.69 39.9974 40.9927 42.6948 40.9927 46C40.9927 49.3052 43.69 52.0026 46.9952 52.0026C50.3003 52.0026 52.9976 49.3052 52.9976 46C52.9976 42.6948 50.3003 39.9974 46.9952 39.9974ZM64.998 46C64.998 43.5143 65.0205 41.0512 64.8809 38.57C64.7413 35.688 64.0839 33.1303 61.9765 31.0229C59.8646 28.911 57.3114 28.258 54.4295 28.1184C51.9439 27.9788 49.4808 28.0013 46.9997 28.0013C44.514 28.0013 42.0509 27.9788 39.5698 28.1184C36.6879 28.258 34.1302 28.9155 32.0228 31.0229C29.9109 33.1348 29.258 35.688 29.1184 38.57C28.9788 41.0557 29.0013 43.5188 29.0013 46C29.0013 48.4812 28.9788 50.9488 29.1184 53.43C29.258 56.312 29.9154 58.8697 32.0228 60.9771C34.1347 63.089 36.6879 63.742 39.5698 63.8816C42.0554 64.0212 44.5185 63.9987 46.9997 63.9987C49.4853 63.9987 51.9484 64.0212 54.4295 63.8816C57.3114 63.742 59.8691 63.0845 61.9765 60.9771C64.0884 58.8652 64.7413 56.312 64.8809 53.43C65.025 50.9488 64.998 48.4857 64.998 46V46ZM46.9952 55.2357C41.8843 55.2357 37.7596 51.111 37.7596 46C37.7596 40.889 41.8843 36.7643 46.9952 36.7643C52.106 36.7643 56.2307 40.889 56.2307 46C56.2307 51.111 52.106 55.2357 46.9952 55.2357ZM56.609 38.543C55.4157 38.543 54.4521 37.5793 54.4521 36.386C54.4521 35.1927 55.4157 34.229 56.609 34.229C57.8023 34.229 58.7659 35.1927 58.7659 36.386C58.7663 36.6694 58.7107 36.95 58.6024 37.2119C58.4942 37.4737 58.3353 37.7116 58.1349 37.912C57.9346 38.1124 57.6967 38.2712 57.4348 38.3795C57.173 38.4878 56.8923 38.5433 56.609 38.543V38.543Z" fill="white"/>
<defs>
<linearGradient id="paint0_linear_513_1760" x1="82" y1="11" x2="11" y2="82" gradientUnits="userSpaceOnUse">
<stop stop-color="#7D53B0"/>
<stop offset="0.471831" stop-color="#BF4282"/>
<stop offset="0.929578" stop-color="#DF7C50"/>
</linearGradient>
</defs>
</svg>
