<svg id="youtube" width="94" height="94" viewBox="0 0 94 94" fill="none" xmlns="http://www.w3.org/2000/svg">
<rect x="11" y="11" width="71" height="71" rx="6" fill="#AC2217"/>
<path fill-rule="evenodd" clip-rule="evenodd" d="M62.6356 36.0602C61.3725 34.5974 59.04 34 54.585 34H38.4144C33.8581 34 31.4856 34.6352 30.2269 36.1936C29 37.7124 29 39.9504 29 43.0483V48.9517C29 54.9527 30.4562 58 38.4144 58H54.585C58.4481 58 60.5887 57.4732 61.9737 56.1822C63.3937 54.8577 64 52.6952 64 48.9517V43.0483C64 39.7811 63.905 37.5303 62.6356 36.0602ZM51.47 46.8148L44.1269 50.554C43.9631 50.638 43.7838 50.6794 43.6044 50.6794C43.4013 50.6794 43.1987 50.6264 43.0194 50.5199C42.6812 50.3213 42.475 49.9639 42.475 49.579V42.1244C42.475 41.7408 42.6806 41.3845 43.0181 41.1842C43.355 40.985 43.7744 40.9716 44.1244 41.1482L51.4675 44.8636C51.8413 45.053 52.0756 45.4282 52.0763 45.8386C52.0769 46.2485 51.8431 46.6254 51.47 46.8148Z" fill="white"/>
</svg>
